<?xml version="1.0" encoding="UTF-8" standalone="no" ?>
<!DOCTYPE svg PUBLIC "-//W3C//DTD SVG 1.1//EN" "http://www.w3.org/Graphics/SVG/1.1/DTD/svg11.dtd">
<svg xmlns="http://www.w3.org/2000/svg" xmlns:xlink="http://www.w3.org/1999/xlink" version="1.1" width="300" height="300" viewBox="0 0 300 300" xml:space="preserve">
<desc>Created with Fabric.js 5.2.4</desc>
<defs>
</defs>
<g transform="matrix(1 0 0 1 540 540)" id="8bf3ad52-bc0d-4fbb-8375-9a269d179263"  >
<rect style="stroke: none; stroke-width: 1; stroke-dasharray: none; stroke-linecap: butt; stroke-dashoffset: 0; stroke-linejoin: miter; stroke-miterlimit: 4; fill: rgb(0,0,0); fill-rule: nonzero; opacity: 1; visibility: hidden;" vector-effect="non-scaling-stroke"  x="-540" y="-540" rx="0" ry="0" width="1080" height="1080" />
</g>
<g transform="matrix(1 0 0 1 540 540)" id="eef7c911-5d57-4593-9d5f-35c043d20106"  >
</g>
<g transform="matrix(4.14 0 0 4.14 150 150)"  >
<path style="stroke: none; stroke-width: 1; stroke-dasharray: none; stroke-linecap: butt; stroke-dashoffset: 0; stroke-linejoin: miter; stroke-miterlimit: 4; fill: rgb(255,255,255); fill-rule: nonzero; opacity: 1;" vector-effect="non-scaling-stroke"  transform=" translate(-209.49, -50.68)" d="M 241.63 83.94 C 240.3670771461676 83.48575995512692 239.1513491208856 82.90971251615034 238 82.22 C 230.21 76.56 222.51 70.78 214.73 65.11 C 210.38 61.94 207.6 62.03 203.2 65.28 C 195.67 70.85 188.2 76.46000000000001 180.57999999999998 81.92 C 179.44 82.74 177.77999999999997 82.83 176.36999999999998 83.25 C 176.73 81.85 176.71999999999997 80.18 177.50999999999996 79.08 C 182.93999999999997 71.46 188.50999999999996 63.96 194.08999999999997 56.42 C 197.58999999999997 51.660000000000004 197.62999999999997 49.18 194.08999999999997 44.28 C 188.55999999999997 36.71 182.89999999999998 29.28 177.43999999999997 21.61 C 176.65999999999997 20.52 176.69999999999996 18.83 176.35999999999996 17.419999999999998 C 177.68999999999997 17.779999999999998 179.24999999999994 17.81 180.28999999999996 18.56 C 187.69999999999996 23.9 194.98999999999995 29.38 202.28999999999996 34.82 C 207.89999999999998 38.99 210.13999999999996 39.03 215.65999999999997 34.98 C 222.99999999999997 29.58 230.29999999999995 24.119999999999997 237.70999999999998 18.819999999999997 C 238.85999999999999 17.999999999999996 240.51 17.899999999999995 241.92999999999998 17.459999999999997 C 241.55999999999997 18.869999999999997 241.55999999999997 20.54 240.76999999999998 21.65 C 235.32 29.259999999999998 229.70999999999998 36.76 224.14999999999998 44.29 C 220.67999999999998 48.99 220.61999999999998 51.66 224.14999999999998 56.45 C 229.76999999999998 64.11 235.49999999999997 71.69 241.09999999999997 79.36 C 241.7457077285212 80.51047892087887 242.2557831900361 81.73197542082247 242.62 83 Z" stroke-linecap="round" />
</g>
</svg>