<svg xmlns="http://www.w3.org/2000/svg" viewBox="0 0 367.5 73.97"><defs><style>.cls-1{fill:#fff;}</style></defs><g id="Layer_2" data-name="Layer 2"><g id="Layer_1-2" data-name="Layer 1"><path class="cls-1" d="M13,79v7.2H4.57v-1H6.49a6,6,0,0,0,4.37-1.83A6,6,0,0,0,12.68,79ZM12.78,13.7l4.47,5.68.1,66.86H12.68V26.38a107.43,107.43,0,0,0-.91-12.68Zm0,0,59,62.9.91,11.07L13.7,24.86ZM17.35,79a6.25,6.25,0,0,0,6.19,6.19h1.93v1H17.05V79ZM59.86,15.22h8.43v7.2h-.21A6.36,6.36,0,0,0,66.21,18a6,6,0,0,0-4.42-1.78H59.86Zm12.79,0V74.68q0,3.24.2,6.24c.14,2,.37,4.24.71,6.75h-.91l-4.57-5.38V15.22Zm8.12,0v1H78.94A6,6,0,0,0,74.58,18a6.25,6.25,0,0,0-1.93,4.41h-.31v-7.2Z" transform="translate(-4.57 -13.7)"/><path class="cls-1" d="M110.39,22.52l-8.52-.3a13.5,13.5,0,0,0-4.16-4.16,10.57,10.57,0,0,0-6-1.83H90.3v-1h25v1h-1.32a3.7,3.7,0,0,0-3.39,2.08A4.35,4.35,0,0,0,110.39,22.52Zm-3.85-7.2,19.88,37-4.36,3.56L97.81,15.32Zm14.91,63.52v7.4h-8v-1h1.32a6.16,6.16,0,0,0,4.51-1.88,6.53,6.53,0,0,0,2-4.51Zm6.39-25.27V86.24h-6.59V53.57Zm18.07-38.25h6.18l-25,40.38-3.66-1.11ZM127.54,78.84h.3a6.08,6.08,0,0,0,1.93,4.51,6.35,6.35,0,0,0,4.57,1.88h1.22v1h-8Zm14.21-56.32a3.48,3.48,0,0,0,.5-2.89,4.84,4.84,0,0,0-1.52-2.43,3.79,3.79,0,0,0-2.54-1H137v-1H159.5v1h-1.42a10.36,10.36,0,0,0-5.88,1.83,16.16,16.16,0,0,0-4.37,4.16Z" transform="translate(-4.57 -13.7)"/><path class="cls-1" d="M272.64,22.63h-.31a6.56,6.56,0,0,0-2-4.52,6.16,6.16,0,0,0-4.51-1.88h-1.32v-1h8.12Zm0,56.21v7.4h-8.12v-1h1.32a6.16,6.16,0,0,0,4.51-1.88,6.53,6.53,0,0,0,2-4.51Zm6.29-63.62v71h-6.6v-71Zm-.31,7.41V15.22h8.12v1h-1.32a6.19,6.19,0,0,0-4.52,1.88,6.5,6.5,0,0,0-2,4.52Zm0,56.21h.31a6.48,6.48,0,0,0,2,4.51,6.19,6.19,0,0,0,4.52,1.88h1.32v1h-8.12Z" transform="translate(-4.57 -13.7)"/><path class="cls-1" d="M313.32,78.84a5.17,5.17,0,0,0-.2,3.45,4.19,4.19,0,0,0,1.67,2.18,4.32,4.32,0,0,0,2.39.76h.91v1H297.7v-1h.91a9.46,9.46,0,0,0,4.82-1.47,10.79,10.79,0,0,0,4.11-4.92Zm21.82-65,.91,7.1-25.47,65h-6.09l26-61.69c.74-1.69,1.37-3.15,1.88-4.36s.94-2.4,1.32-3.56a9.24,9.24,0,0,0,.55-2.53Zm14.3,44.74v3.05H317.68V58.54ZM335.14,13.8l30,71.84h-8.62l-23.44-62.2Zm18.87,65h8.32a10.15,10.15,0,0,0,4.06,4.92,9.71,9.71,0,0,0,4.87,1.47h.81v1H349.24v-1h.91a4.57,4.57,0,0,0,3.45-1.67C354.62,82.44,354.75,80.87,354,78.84Z" transform="translate(-4.57 -13.7)"/><path class="cls-1" d="M241.63,83.94A20.69,20.69,0,0,1,238,82.22c-7.79-5.66-15.49-11.44-23.27-17.11-4.35-3.17-7.13-3.08-11.53.17-7.53,5.57-15,11.18-22.62,16.64-1.14.82-2.8.91-4.21,1.33.36-1.4.35-3.07,1.14-4.17,5.43-7.62,11-15.12,16.58-22.66,3.5-4.76,3.54-7.24,0-12.14-5.53-7.57-11.19-15-16.65-22.67-.78-1.09-.74-2.78-1.08-4.19,1.33.36,2.89.39,3.93,1.14,7.41,5.34,14.7,10.82,22,16.26,5.61,4.17,7.85,4.21,13.37.16,7.34-5.4,14.64-10.86,22.05-16.16,1.15-.82,2.8-.92,4.22-1.36-.37,1.41-.37,3.08-1.16,4.19-5.45,7.61-11.06,15.11-16.62,22.64-3.47,4.7-3.53,7.37,0,12.16,5.62,7.66,11.35,15.24,16.95,22.91A17.06,17.06,0,0,1,242.62,83Z" transform="translate(-4.57 -13.7)"/></g></g></svg>